<?xml version="1.0" encoding="UTF-8" standalone="no"?>
<svg width="43px" height="32px" viewBox="0 0 43 32" version="1.1" xmlns="http://www.w3.org/2000/svg" xmlns:xlink="http://www.w3.org/1999/xlink">
    <!-- Generator: Sketch 44.1 (41455) - http://www.bohemiancoding.com/sketch -->
    <title>Group 4</title>
    <desc>Created with Sketch.</desc>
    <defs>
        <rect id="path-1" x="2.51461988" y="13.25" width="37.4678363" height="18.75"></rect>
        <path d="M1.84863386,8.5 C28.2900835,8.5 41.6720017,8.5 41.9943884,8.5 C42.4815602,8.5 42.7650044,9.05193745 42.7705548,9.31833758 C42.8980567,15.4379763 42.0817606,18.1914173 40.3216668,17.5786605 C37.5665954,16.6195135 38.7806229,15.1965278 35.9060563,15.1965278 C33.0314896,15.1965278 31.1459448,17.2145321 29.2741776,17.5786605 C27.4024103,17.9427889 26.5759198,15.1965278 23.6511856,15.1965278 C20.7264514,15.1965278 19.6286495,17.8465196 17.5655521,18.2470133 C15.5024548,18.6475069 14.0418343,15.3497686 11.3039918,15.1965278 C8.56614927,15.0432869 7.36954295,17.9210762 5.9948985,18.2470133 C4.62025405,18.5729503 3.32818094,21.8392261 1.25730994,17.5786605 C0.0150129911,15.0227853 -0.109419753,12.316432 0.88401171,9.45960043 C0.99459348,9.14159813 1.41580393,8.5 1.84863386,8.5 Z" id="path-2"></path>
    </defs>
    <g id="Page-1" stroke="none" stroke-width="1" fill="none" fill-rule="evenodd">
        <g id="Artboard" transform="translate(-530.000000, -1680.000000)">
            <g id="Group-4" transform="translate(530.000000, 1680.000000)">
                <rect id="Rectangle-8" fill="#FFFFE6" x="2.51461988" y="11.75" width="37.4678363" height="8.5"></rect>
                <g id="Rectangle-8">
                    <use fill="#FFFFE6" fill-rule="evenodd" xlink:href="#path-1"></use>
                    <rect stroke="#E5DC11" stroke-width="1" x="3.01461988" y="13.75" width="36.4678363" height="17.75"></rect>
                </g>
                <rect id="Rectangle-8" fill="#E5DC11" x="2.51461988" y="19.75" width="37.4678363" height="2.5"></rect>
                <path d="M34.0730994,9.7 C35.6702036,9.7 36.9649123,8.26245064 36.9649123,5.82156863 C36.9649123,3.38068662 35.6702036,0.5 34.0730994,0.5 C32.4759953,0.5 31.1812865,3.38068662 31.1812865,5.82156863 C31.1812865,8.26245064 32.4759953,9.7 34.0730994,9.7 Z" id="Oval" fill="#EF5245"></path>
                <path d="M15.7163743,9.2 C17.3134784,9.2 18.6081871,7.76245064 18.6081871,5.32156863 C18.6081871,2.88068662 17.3134784,0 15.7163743,0 C14.1192701,0 12.8245614,2.88068662 12.8245614,5.32156863 C12.8245614,7.76245064 14.1192701,9.2 15.7163743,9.2 Z" id="Oval" fill="#EF5245"></path>
                <path d="M24.5175439,9.45 C26.114648,9.45 27.4093567,8.01245064 27.4093567,5.57156863 C27.4093567,3.13068662 26.114648,0.25 24.5175439,0.25 C22.9204397,0.25 21.625731,3.13068662 21.625731,5.57156863 C21.625731,8.01245064 22.9204397,9.45 24.5175439,9.45 Z" id="Oval" fill="#EF5245"></path>
                <path d="M6.91520468,9.7 C8.51230882,9.7 9.80701754,8.26245064 9.80701754,5.82156863 C9.80701754,3.38068662 8.51230882,0.5 6.91520468,0.5 C5.31810053,0.5 4.02339181,3.38068662 4.02339181,5.82156863 C4.02339181,8.26245064 5.31810053,9.7 6.91520468,9.7 Z" id="Oval" fill="#EF5245"></path>
                <g id="Rectangle-7">
                    <use fill="#FFFFFF" fill-rule="evenodd" xlink:href="#path-2"></use>
                    <path stroke="#ECECEC" stroke-width="1" d="M1.84863386,9 C1.75726325,9 1.44957993,9.35549899 1.35627288,9.62382401 C0.405752512,12.3572552 0.523853529,14.9258965 1.70700372,17.3600844 C2.33018722,18.6422088 2.85843171,19.1919212 3.29057343,19.2455221 C3.58969626,19.282624 3.89383723,19.1155777 4.51870139,18.6000547 C4.97169261,18.2263296 5.10929795,18.1199488 5.35005129,17.9801756 C5.52835081,17.8766609 5.70200494,17.8025975 5.87954355,17.760502 C5.96551989,17.7401164 6.06006489,17.7001517 6.16537507,17.6384523 C6.34461717,17.5334373 6.54437115,17.3730298 6.80538632,17.1290501 C6.94025552,17.0029832 7.46818896,16.4851786 7.58812986,16.3712489 C8.84335226,15.1789351 9.89745752,14.6170195 11.3319338,14.6973091 C12.532042,14.7644808 13.4300906,15.2581774 14.7675737,16.3482982 C14.7571682,16.3398172 15.2614651,16.753927 15.398635,16.8637588 C15.6259672,17.0457835 15.8113036,17.1853098 15.9860564,17.3037347 C16.5707691,17.6999774 17.0218768,17.8432191 17.4702696,17.756176 C17.9970839,17.6539094 18.4735251,17.3827402 19.1639918,16.8356509 C19.3002611,16.7276783 19.9201619,16.222182 19.7518653,16.3588268 C21.1902351,15.190973 22.1749192,14.6965278 23.6511856,14.6965278 C24.9493897,14.6965278 25.8710845,15.1176924 27.0133972,16.0102265 C27.1211785,16.0944402 27.4675895,16.3711765 27.4912471,16.3898878 C27.6668194,16.5287518 27.7980585,16.6279441 27.9230384,16.7146017 C28.4124721,17.0539611 28.7712152,17.1671321 29.1786989,17.0878613 C29.7819312,16.9705102 29.9171435,16.9057725 31.665834,15.9742757 C33.321782,15.0921812 34.4655853,14.6965278 35.9060563,14.6965278 C37.3118328,14.6965278 37.9359529,14.9807998 38.5603092,15.7287353 C39.0438809,16.3080207 38.9944124,16.2520191 39.2093958,16.4307886 C39.5205043,16.6894911 39.9218502,16.9100351 40.4860588,17.1064579 C41.0394425,17.2991122 41.4373685,16.9684814 41.774582,15.8310293 C42.1646478,14.5153018 42.3334252,12.3411031 42.2706633,9.32875275 C42.2682699,9.21387802 42.1028816,9 41.9943884,9 L1.84863386,9 Z"></path>
                </g>
                <rect id="Rectangle-9" fill="#FF7368" x="2.51461988" y="22.25" width="37.4678363" height="2"></rect>
            </g>
        </g>
    </g>
</svg>