<?xml version="1.0" encoding="UTF-8" standalone="no"?>
<svg width="277px" height="98px" viewBox="0 0 277 98" version="1.1" xmlns="http://www.w3.org/2000/svg" xmlns:xlink="http://www.w3.org/1999/xlink">
    <!-- Generator: Sketch 44.1 (41455) - http://www.bohemiancoding.com/sketch -->
    <title>Group 3</title>
    <desc>Created with Sketch.</desc>
    <defs></defs>
    <g id="Page-1" stroke="none" stroke-width="1" fill="none" fill-rule="evenodd">
        <g id="Artboard" transform="translate(-358.000000, -1249.000000)">
            <g id="Group-3" transform="translate(358.000000, 1249.000000)">
                <path d="M38.2221348,83.1785889 L38.5448793,82.8590354 L38.9978743,82.8918064 C39.9932987,82.9638183 40.9944242,83 42,83 L235,83 C257.643675,83 276,64.6436747 276,42 C276,19.3563253 257.643675,1 235,1 L42,1 C19.3563253,1 1,19.3563253 1,42 C1,58.2225652 10.5077483,72.7148323 25.0134142,79.3268975 L25.9479441,79.7528809 L25.4971855,80.675716 C23.4253525,84.9173665 20.9560474,89.7884432 18.0890902,95.2894037 C17.9385434,95.5782648 17.9381226,95.9223486 18.0879624,96.2115771 C18.3420142,96.7019607 18.9454983,96.8935455 19.4358819,96.6394938 C26.6971292,92.8776783 32.9580345,88.3906426 38.2221348,83.1785889 Z" id="Combined-Shape" stroke="#1C1C1C" stroke-width="2"></path>
                <path d="M52.32,35.688 L52.32,34.536 C52.32,33.528 52.488,33.024 52.608,32.688 C52.8,32.304 52.656,32.04 52.176,31.944 C51.504,31.8 50.376,31.68 49.2,31.584 C49.44,32.52 49.44,33.504 49.44,34.776 L49.44,35.712 L46.992,35.712 C45.792,35.712 44.472,35.688 43.344,35.64 C43.128,35.64 42.984,35.736 43.008,35.952 C43.056,36.648 43.056,37.512 43.056,38.28 L43.056,40.224 C43.056,41.184 43.032,41.976 43.008,43.2 C43.008,43.488 43.08,43.56 43.392,43.56 C44.112,43.608 44.88,43.608 45.6,43.56 C45.912,43.56 45.984,43.488 45.984,43.104 C45.96,42.144 45.912,41.16 45.912,40.2 L45.912,38.184 L56.352,38.184 C55.752,40.752 54.912,42.84 53.568,44.88 C51.96,47.328 50.088,48.984 46.704,50.856 C47.664,51.144 48.36,51.432 49.104,51.936 C49.296,52.08 49.44,52.176 49.608,52.176 C49.728,52.176 49.848,52.128 49.992,52.032 C52.416,50.592 54.792,48.312 56.184,46.152 C57.6,43.992 58.464,41.568 59.208,39.096 C59.328,38.688 59.424,38.232 59.736,37.92 C59.88,37.752 59.976,37.584 59.976,37.392 C59.976,37.272 59.928,37.152 59.808,37.032 C59.376,36.528 58.68,35.904 58.2,35.544 C58.056,35.4 57.864,35.304 57.672,35.304 C57.552,35.304 57.432,35.352 57.336,35.424 C57.024,35.616 56.664,35.688 55.536,35.688 L52.32,35.688 Z M70.911,39.984 C69.735,39.984 67.959,39.96 66.255,39.816 C66.255,40.56 66.375,41.544 66.495,42 C66.567,42.384 66.639,42.576 66.951,42.552 C68.127,42.456 69.903,42.456 70.767,42.456 L75.039,42.456 C74.943,43.944 74.607,45.216 73.983,46.44 C72.999,48.24 71.895,49.464 69.495,50.88 C70.287,51.048 71.175,51.336 72.039,51.792 C72.207,51.888 72.351,51.936 72.471,51.936 C72.615,51.936 72.735,51.864 72.879,51.768 C74.439,50.736 75.855,49.056 76.695,47.28 C77.367,45.936 77.703,44.496 77.895,42.456 L80.847,42.456 C82.599,42.456 83.991,42.48 85.503,42.528 C85.791,42.528 85.791,42.432 85.815,42.096 C85.839,41.544 85.863,40.8 85.815,40.176 C85.791,39.912 85.791,39.792 85.551,39.792 C84.471,39.84 82.431,39.96 80.919,39.96 L77.943,39.96 C77.943,39.144 77.943,38.592 77.967,38.064 C77.991,37.704 78.039,37.464 78.135,37.248 C78.207,37.08 78.279,36.96 78.279,36.84 C78.279,36.672 78.159,36.552 77.967,36.504 C77.583,36.36 77.031,36.264 76.407,36.192 C77.823,35.904 79.287,35.544 80.751,35.136 C81.255,35.016 81.759,34.8 82.263,34.728 C82.647,34.704 82.887,34.656 82.887,34.392 C82.887,34.128 82.767,33.912 82.575,33.72 C82.191,33.24 81.423,32.64 80.607,32.04 C80.079,32.448 79.671,32.688 78.543,33.12 C77.439,33.528 76.239,33.792 74.583,34.152 C72.327,34.584 70.455,34.896 67.455,35.04 C68.103,35.712 68.439,36.216 68.679,36.696 C68.775,36.96 68.919,37.272 69.279,37.224 C71.127,37.104 73.383,36.744 74.967,36.456 C75.039,36.936 75.063,37.248 75.087,37.56 C75.111,38.256 75.135,39.216 75.135,39.984 L70.911,39.984 Z M93.6060001,32.712 C93.6060001,33.72 93.4860001,34.512 93.1740001,36.288 C92.6220001,39.384 92.3580001,42 92.3580001,44.16 C92.3580001,46.584 92.7900001,49.632 93.4620001,51.312 C93.5100001,51.48 93.6060001,51.6 93.7740001,51.576 C94.4700001,51.504 95.1420001,51.36 95.7420001,51.192 C95.9580001,51.144 96.0540001,51.048 96.0540001,50.88 C96.0540001,50.688 96.0060001,50.496 96.0060001,50.208 C96.0060001,49.872 96.0300001,49.608 96.0780001,49.464 C96.4380001,48.12 96.8940001,47.088 97.4460001,45.84 C97.5180001,45.72 97.5660001,45.624 97.5660001,45.456 C97.5660001,45.36 97.4700001,45.216 97.3980001,45.096 C97.0620001,44.568 96.7500001,44.184 96.5580001,43.584 C95.8620001,45.264 95.4300001,46.056 94.9260001,47.16 C94.8300001,46.32 94.7820001,45.528 94.7820001,44.352 C94.7820001,42.528 95.1180001,39.576 95.7900001,36.6 C96.0060001,35.664 96.1260001,35.328 96.3660001,34.896 C96.6780001,34.416 96.7260001,34.344 96.7260001,34.176 C96.7260001,33.96 96.5820001,33.816 96.1740001,33.6 C95.4540001,33.216 94.6860001,32.976 93.6060001,32.712 Z M99.1260001,45.096 C99.1260001,46.224 99.3660001,47.448 99.9660001,48.216 C100.998,49.632 102.654,50.208 106.206,50.208 C107.334,50.208 108.486,50.136 110.118,49.944 C110.526,49.896 110.526,49.872 110.526,49.584 C110.526,48.96 110.454,48.024 110.382,47.52 C110.334,47.208 110.286,47.184 110.046,47.208 C108.438,47.4 107.262,47.52 105.462,47.52 C102.846,47.52 101.694,46.92 101.55,45.264 C101.55,45 101.502,44.88 101.31,44.904 L99.1260001,45.096 Z M99.8940001,38.28 C102.174,37.872 103.734,37.728 105.342,37.728 C106.566,37.728 107.814,37.776 109.254,37.872 C109.47,37.896 109.542,37.8 109.566,37.584 C109.614,36.912 109.614,36.264 109.614,35.544 C109.614,35.304 109.566,35.256 109.062,35.232 C108.054,35.136 106.95,35.088 105.51,35.088 C104.406,35.088 101.718,35.256 100.302,35.52 C100.062,35.568 99.9900001,35.64 99.9660001,35.928 C99.9180001,36.336 99.9180001,36.936 99.8940001,38.28 Z M133.725,51.864 L124.845,51.864 C122.493,51.864 121.653,51.912 121.509,51.912 C121.269,51.912 121.245,51.888 121.245,51.624 L121.245,49.776 C121.245,49.536 121.269,49.512 121.509,49.512 C121.653,49.512 122.493,49.56 124.845,49.56 L127.773,49.56 L127.773,44.592 L126.165,44.592 C123.933,44.592 123.165,44.64 123.021,44.64 C122.757,44.64 122.733,44.616 122.733,44.376 L122.733,42.576 C122.733,42.336 122.757,42.312 123.021,42.312 C123.165,42.312 123.933,42.36 126.165,42.36 L127.773,42.36 L127.773,38.208 L125.517,38.208 C123.189,38.208 122.397,38.256 122.253,38.256 C122.013,38.256 121.989,38.232 121.989,37.992 L121.989,36.168 C121.989,35.904 122.013,35.904 122.253,35.904 C122.397,35.904 123.189,35.928 125.517,35.928 L133.029,35.928 C135.333,35.928 136.149,35.904 136.293,35.904 C136.557,35.904 136.581,35.904 136.581,36.168 L136.581,37.992 C136.581,38.232 136.557,38.256 136.293,38.256 C136.149,38.256 135.333,38.208 133.029,38.208 L130.341,38.208 L130.341,42.36 L132.237,42.36 C134.493,42.36 135.261,42.312 135.405,42.312 C135.645,42.312 135.669,42.336 135.669,42.576 L135.669,44.376 C135.669,44.616 135.645,44.64 135.405,44.64 C135.261,44.64 134.493,44.592 132.237,44.592 L130.341,44.592 L130.341,49.56 L133.725,49.56 C136.077,49.56 136.893,49.512 137.037,49.512 C137.277,49.512 137.301,49.536 137.301,49.776 L137.301,51.624 C137.301,51.888 137.277,51.912 137.037,51.912 C136.893,51.912 136.077,51.864 133.725,51.864 Z M117.789,48.96 L117.789,40.632 C117.357,41.208 116.877,41.784 116.397,42.336 C116.205,42.552 116.061,42.648 115.965,42.648 C115.869,42.648 115.797,42.528 115.701,42.24 C115.533,41.472 115.197,40.632 114.909,40.176 C116.997,37.944 118.437,35.328 119.445,32.52 C119.637,31.968 119.757,31.44 119.829,30.84 C120.693,31.056 121.485,31.248 122.205,31.56 C122.469,31.68 122.565,31.752 122.565,31.92 C122.565,32.088 122.517,32.208 122.325,32.352 C122.157,32.472 122.037,32.688 121.821,33.312 C121.365,34.488 120.837,35.664 120.237,36.792 L120.237,48.96 C120.237,51.312 120.285,52.488 120.285,52.608 C120.285,52.848 120.261,52.872 120.045,52.872 L117.981,52.872 C117.765,52.872 117.741,52.848 117.741,52.608 C117.741,52.464 117.789,51.312 117.789,48.96 Z M125.805,32.376 C125.685,32.496 125.637,32.568 125.637,32.64 C125.637,32.712 125.685,32.76 125.805,32.832 C127.221,33.48 128.781,34.392 129.981,35.4 C130.173,35.544 130.269,35.544 130.509,35.256 L131.637,33.984 C131.733,33.864 131.805,33.768 131.805,33.72 C131.805,33.648 131.733,33.6 131.613,33.504 C130.269,32.52 128.829,31.656 127.437,31.08 C127.221,30.984 127.101,30.984 126.933,31.176 L125.805,32.376 Z M155.652,42.048 C155.892,40.944 156.06,40.032 156.156,38.952 C156.204,38.424 156.204,37.968 156.132,37.32 C157.38,37.632 158.34,37.992 158.916,38.352 C159.132,38.472 159.252,38.784 159.084,39 C158.94,39.312 158.772,39.576 158.7,39.936 C158.508,40.944 158.268,42 158.028,43.032 C159.396,43.728 160.884,44.664 161.772,45.336 C162.012,45.48 161.988,45.6 161.916,45.84 C161.676,46.416 161.172,47.424 160.884,47.904 C160.812,48.024 160.74,48.072 160.668,48.072 C160.572,48.072 160.476,48 160.38,47.904 C159.324,46.992 158.364,46.296 157.236,45.648 C156.012,48.408 154.716,50.16 152.388,51.96 C152.172,52.128 152.052,52.224 151.908,52.224 C151.812,52.224 151.716,52.176 151.548,52.056 C150.9,51.528 150.3,51.288 149.46,51.072 C152.46,48.984 153.924,46.992 154.836,44.568 C153.516,43.896 151.812,43.368 150.084,43.104 C148.812,45.744 148.116,46.944 147.156,47.904 C146.268,48.84 145.308,49.224 144.084,49.224 C142.692,49.224 141.228,48.264 141.228,45.936 C141.228,42.96 144.3,40.632 148.308,40.632 C149.1,38.64 149.7,36.96 150.3,34.944 C148.98,35.088 147.78,35.232 146.988,35.328 C146.652,35.376 146.292,35.448 145.908,35.592 C145.788,35.64 145.62,35.688 145.476,35.688 C145.284,35.688 145.164,35.592 145.092,35.424 C144.876,34.944 144.636,34.008 144.396,32.808 C145.116,32.952 145.788,32.976 146.508,32.952 C147.66,32.952 148.86,32.832 150.228,32.64 C150.828,32.544 151.092,32.424 151.404,32.232 C151.5,32.16 151.62,32.136 151.716,32.136 C151.836,32.136 151.956,32.16 152.052,32.232 C152.652,32.592 153.228,33.072 153.684,33.552 C153.828,33.696 153.9,33.816 153.9,33.96 C153.9,34.104 153.804,34.224 153.66,34.368 C153.3,34.704 153.204,35.16 153.012,35.616 C152.388,37.248 151.716,39.12 150.996,40.848 C152.508,41.04 153.924,41.4 155.652,42.048 Z M147.468,42.912 C145.02,43.008 143.484,44.28 143.484,45.648 C143.484,46.416 143.748,46.752 144.324,46.752 C144.78,46.752 145.236,46.44 145.716,45.84 C146.268,45.144 146.844,44.184 147.468,42.912 Z M178.539,45.648 C178.395,44.112 178.347,42.648 178.323,41.52 C178.299,40.872 178.275,40.488 178.131,39.816 C179.307,39.936 179.931,40.032 180.747,40.272 C180.963,40.32 181.083,40.44 181.083,40.656 C181.083,40.704 181.035,40.872 180.939,41.16 C180.843,41.448 180.819,41.736 180.843,42.144 C180.843,43.56 180.915,44.592 181.107,46.224 C182.835,46.92 184.011,47.448 185.427,48.456 C185.667,48.624 185.691,48.72 185.571,48.96 C185.211,49.704 184.875,50.304 184.467,50.904 C184.395,51.024 184.323,51.072 184.251,51.072 C184.179,51.072 184.107,51.024 184.011,50.928 C182.955,50.016 182.067,49.488 181.083,48.912 C181.083,51.312 179.355,52.416 176.619,52.416 C173.979,52.416 172.203,51.072 172.203,49.008 C172.203,46.92 173.931,45.504 176.643,45.504 C177.099,45.504 177.771,45.528 178.539,45.648 Z M178.587,47.928 C178.011,47.736 177.363,47.568 176.619,47.568 C175.419,47.568 174.483,48.048 174.483,48.96 C174.483,49.728 175.155,50.112 176.523,50.112 C177.819,50.112 178.611,49.416 178.611,48.408 C178.611,48.192 178.611,48.072 178.587,47.928 Z M174.675,35.616 C175.611,35.52 176.715,35.304 177.651,35.088 C177.867,35.016 177.963,35.016 178.011,35.28 C178.131,35.88 178.203,36.6 178.227,37.224 C178.227,37.44 178.131,37.488 177.939,37.512 C176.643,37.776 175.467,37.944 173.979,38.16 C172.443,42.216 171.027,45.528 169.299,48.456 C169.203,48.624 169.131,48.696 169.035,48.696 C168.963,48.696 168.867,48.648 168.747,48.576 C168.195,48.24 167.499,47.736 167.091,47.352 C166.971,47.256 166.923,47.184 166.923,47.088 C166.923,47.016 166.947,46.92 167.043,46.8 C168.843,43.824 170.115,41.304 171.195,38.424 C170.283,38.472 169.539,38.472 168.795,38.472 C168.267,38.472 168.075,38.472 167.475,38.448 C167.235,38.448 167.187,38.376 167.139,38.064 C167.019,37.608 166.947,36.816 166.899,36.024 C167.883,36.096 168.435,36.12 169.131,36.12 C170.067,36.12 170.787,36.096 171.891,36 C172.179,34.992 172.347,34.176 172.515,33.312 C172.659,32.472 172.659,32.112 172.659,31.368 C173.691,31.512 174.723,31.656 175.467,31.872 C175.707,31.92 175.851,32.064 175.851,32.232 C175.851,32.424 175.779,32.544 175.635,32.688 C175.491,32.88 175.395,33.096 175.251,33.576 C175.083,34.152 174.891,34.896 174.675,35.616 Z M180.003,37.896 C180.411,37.176 180.771,36.456 181.083,36.024 C181.227,35.784 181.347,35.76 181.587,35.856 C183.003,36.24 184.899,37.2 186.291,38.112 C186.435,38.208 186.507,38.28 186.507,38.376 C186.507,38.448 186.483,38.544 186.411,38.664 C186.171,39.192 185.739,39.936 185.403,40.44 C185.331,40.56 185.259,40.608 185.187,40.608 C185.115,40.608 185.067,40.584 184.971,40.512 C183.555,39.552 181.827,38.496 180.003,37.896 Z M202.482,37.368 C204.474,37.2 206.322,36.84 207.954,36.288 C208.098,36.24 208.194,36.288 208.242,36.432 C208.434,37.008 208.698,37.824 208.818,38.472 C208.866,38.736 208.77,38.784 208.626,38.832 C206.61,39.384 204.57,39.72 202.554,39.912 C202.602,41.856 202.722,43.176 202.962,45.456 C205.458,46.176 207.666,47.184 209.922,48.552 C210.09,48.648 210.114,48.768 210.018,48.96 C209.658,49.704 209.178,50.448 208.746,50.976 C208.602,51.12 208.53,51.192 208.338,51.048 C206.562,49.728 205.074,48.864 203.01,48.024 C203.01,48.168 203.01,48.384 202.986,48.576 C202.89,50.64 201.354,52.176 198.138,52.176 C195.186,52.176 193.026,50.856 193.026,48.648 C193.026,46.488 195.306,44.976 198.282,44.976 C199.05,44.976 199.77,44.976 200.298,45.048 C200.01,41.904 199.938,39.624 199.89,37.344 C199.866,36.48 199.842,35.256 199.818,34.032 C199.794,33.24 199.722,32.52 199.482,31.848 C200.514,31.92 201.546,32.064 202.554,32.28 C202.818,32.352 202.938,32.496 202.938,32.688 C202.938,32.808 202.89,32.928 202.818,33.048 C202.626,33.384 202.578,33.744 202.53,34.344 C202.482,35.064 202.482,36.12 202.482,37.368 Z M200.37,47.712 L200.346,47.376 C199.482,47.208 198.81,47.136 198.138,47.136 C196.458,47.136 195.378,47.688 195.378,48.552 C195.378,49.368 196.338,49.776 197.85,49.776 C199.65,49.776 200.442,48.72 200.37,47.712 Z M228.513,31.992 L224.769,31.992 L225.441,46.272 L227.865,46.272 L228.513,31.992 Z M224.913,48.6 L224.913,51.84 L228.321,51.84 L228.321,48.6 L224.913,48.6 Z" id="ウチに住みなよ！" fill="#232323"></path>
            </g>
        </g>
    </g>
</svg>