<?xml version="1.0" encoding="UTF-8" standalone="no"?>
<svg width="355px" height="98px" viewBox="0 0 355 98" version="1.1" xmlns="http://www.w3.org/2000/svg" xmlns:xlink="http://www.w3.org/1999/xlink">
    <!-- Generator: Sketch 44.1 (41455) - http://www.bohemiancoding.com/sketch -->
    <title>Group 2</title>
    <desc>Created with Sketch.</desc>
    <defs></defs>
    <g id="Page-1" stroke="none" stroke-width="1" fill="none" fill-rule="evenodd">
        <g id="Artboard" transform="translate(-730.000000, -1249.000000)">
            <g id="Group-2" transform="translate(730.000000, 1249.000000)">
                <path d="M38.2221348,83.1785889 L38.5448793,82.8590354 L38.9978743,82.8918064 C39.9932987,82.9638183 40.9944242,83 42,83 L313,83 C335.643675,83 354,64.6436747 354,42 C354,19.3563253 335.643675,1 313,1 L42,1 C19.3563253,1 1,19.3563253 1,42 C1,58.2225652 10.5077483,72.7148323 25.0134142,79.3268975 L25.9479441,79.7528809 L25.4971855,80.675716 C23.4253525,84.9173665 20.9560474,89.7884432 18.0890902,95.2894037 C17.9385434,95.5782648 17.9381226,95.9223486 18.0879624,96.2115771 C18.3420142,96.7019607 18.9454983,96.8935455 19.4358819,96.6394938 C26.6971292,92.8776783 32.9580345,88.3906426 38.2221348,83.1785889 Z" id="Combined-Shape" stroke="#353535" stroke-width="2" transform="translate(177.500000, 48.875995) scale(-1, 1) translate(-177.500000, -48.875995) "></path>
                <path d="M84.32,35.688 L84.32,34.536 C84.32,33.528 84.488,33.024 84.608,32.688 C84.8,32.304 84.656,32.04 84.176,31.944 C83.504,31.8 82.376,31.68 81.2,31.584 C81.44,32.52 81.44,33.504 81.44,34.776 L81.44,35.712 L78.992,35.712 C77.792,35.712 76.472,35.688 75.344,35.64 C75.128,35.64 74.984,35.736 75.008,35.952 C75.056,36.648 75.056,37.512 75.056,38.28 L75.056,40.224 C75.056,41.184 75.032,41.976 75.008,43.2 C75.008,43.488 75.08,43.56 75.392,43.56 C76.112,43.608 76.88,43.608 77.6,43.56 C77.912,43.56 77.984,43.488 77.984,43.104 C77.96,42.144 77.912,41.16 77.912,40.2 L77.912,38.184 L88.352,38.184 C87.752,40.752 86.912,42.84 85.568,44.88 C83.96,47.328 82.088,48.984 78.704,50.856 C79.664,51.144 80.36,51.432 81.104,51.936 C81.296,52.08 81.44,52.176 81.608,52.176 C81.728,52.176 81.848,52.128 81.992,52.032 C84.416,50.592 86.792,48.312 88.184,46.152 C89.6,43.992 90.464,41.568 91.208,39.096 C91.328,38.688 91.424,38.232 91.736,37.92 C91.88,37.752 91.976,37.584 91.976,37.392 C91.976,37.272 91.928,37.152 91.808,37.032 C91.376,36.528 90.68,35.904 90.2,35.544 C90.056,35.4 89.864,35.304 89.672,35.304 C89.552,35.304 89.432,35.352 89.336,35.424 C89.024,35.616 88.664,35.688 87.536,35.688 L84.32,35.688 Z M102.911,39.984 C101.735,39.984 99.959,39.96 98.255,39.816 C98.255,40.56 98.375,41.544 98.495,42 C98.567,42.384 98.639,42.576 98.951,42.552 C100.127,42.456 101.903,42.456 102.767,42.456 L107.039,42.456 C106.943,43.944 106.607,45.216 105.983,46.44 C104.999,48.24 103.895,49.464 101.495,50.88 C102.287,51.048 103.175,51.336 104.039,51.792 C104.207,51.888 104.351,51.936 104.471,51.936 C104.615,51.936 104.735,51.864 104.879,51.768 C106.439,50.736 107.855,49.056 108.695,47.28 C109.367,45.936 109.703,44.496 109.895,42.456 L112.847,42.456 C114.599,42.456 115.991,42.48 117.503,42.528 C117.791,42.528 117.791,42.432 117.815,42.096 C117.839,41.544 117.863,40.8 117.815,40.176 C117.791,39.912 117.791,39.792 117.551,39.792 C116.471,39.84 114.431,39.96 112.919,39.96 L109.943,39.96 C109.943,39.144 109.943,38.592 109.967,38.064 C109.991,37.704 110.039,37.464 110.135,37.248 C110.207,37.08 110.279,36.96 110.279,36.84 C110.279,36.672 110.159,36.552 109.967,36.504 C109.583,36.36 109.031,36.264 108.407,36.192 C109.823,35.904 111.287,35.544 112.751,35.136 C113.255,35.016 113.759,34.8 114.263,34.728 C114.647,34.704 114.887,34.656 114.887,34.392 C114.887,34.128 114.767,33.912 114.575,33.72 C114.191,33.24 113.423,32.64 112.607,32.04 C112.079,32.448 111.671,32.688 110.543,33.12 C109.439,33.528 108.239,33.792 106.583,34.152 C104.327,34.584 102.455,34.896 99.455,35.04 C100.103,35.712 100.439,36.216 100.679,36.696 C100.775,36.96 100.919,37.272 101.279,37.224 C103.127,37.104 105.383,36.744 106.967,36.456 C107.039,36.936 107.063,37.248 107.087,37.56 C107.111,38.256 107.135,39.216 107.135,39.984 L102.911,39.984 Z M134.822,36.288 L134.726,36.288 C134.174,40.368 133.166,44.112 131.726,46.632 C130.694,48.432 129.446,49.392 127.646,49.392 C125.534,49.392 123.398,47.136 123.398,43.224 C123.398,40.92 124.382,38.712 126.11,36.984 C128.126,34.968 130.67,33.912 133.91,33.912 C139.67,33.912 143.054,37.464 143.054,42.24 C143.054,46.704 140.534,49.512 135.662,50.976 C135.158,51.12 134.942,51.024 134.63,50.544 C134.366,50.136 133.862,49.584 132.95,49.032 C137.006,48.072 140.198,46.392 140.198,41.856 C140.198,39 138.038,36.288 134.822,36.288 Z M131.942,36.432 C130.262,36.768 128.918,37.44 127.838,38.616 C126.686,39.912 125.966,41.52 125.966,43.056 C125.966,45.264 126.854,46.488 127.598,46.488 C128.222,46.488 128.75,46.176 129.398,45.024 C130.454,43.08 131.534,39.624 131.942,36.432 Z M154.469,45.024 C153.917,46.512 153.221,48.048 152.357,49.68 C152.093,49.68 151.829,49.704 151.589,49.704 C150.653,49.752 149.861,49.776 148.973,49.704 C149.117,50.544 149.261,51.384 149.477,52.176 C149.525,52.392 149.645,52.512 149.813,52.512 C149.981,52.512 150.101,52.464 150.221,52.368 C150.389,52.272 150.701,52.176 151.085,52.152 C155.165,51.84 160.061,51.432 164.045,50.928 C164.429,51.504 164.837,52.128 165.245,52.8 C165.317,52.92 165.365,52.968 165.437,52.968 C165.509,52.968 165.581,52.92 165.725,52.824 L167.381,51.744 C167.621,51.576 167.621,51.48 167.501,51.288 C166.037,49.152 164.669,47.424 163.037,45.72 C162.869,45.552 162.797,45.528 162.533,45.672 L160.997,46.464 C160.709,46.608 160.685,46.704 160.853,46.896 C161.501,47.592 162.053,48.264 162.605,48.936 C160.325,49.176 157.709,49.392 155.213,49.536 C156.029,48.024 156.749,46.512 157.349,45.024 L164.765,45.024 C167.021,45.024 167.789,45.072 167.933,45.072 C168.197,45.072 168.221,45.048 168.221,44.808 L168.221,43.008 C168.221,42.768 168.197,42.744 167.933,42.744 C167.789,42.744 167.021,42.792 164.765,42.792 L151.973,42.792 C149.717,42.792 148.949,42.744 148.805,42.744 C148.541,42.744 148.517,42.768 148.517,43.008 L148.517,44.808 C148.517,45.048 148.541,45.072 148.805,45.072 C148.949,45.072 149.717,45.024 151.973,45.024 L154.469,45.024 Z M153.509,40.344 L153.509,38.52 C152.165,39.504 150.701,40.368 149.165,41.112 C148.877,41.256 148.709,41.328 148.589,41.328 C148.421,41.328 148.349,41.16 148.157,40.728 C147.869,40.128 147.533,39.6 147.077,39.144 C151.253,37.488 154.373,34.944 156.293,32.16 C156.701,31.56 156.917,31.152 157.133,30.6 C158.069,30.72 158.957,30.888 159.725,31.104 C160.013,31.176 160.157,31.272 160.157,31.44 C160.157,31.584 160.109,31.728 159.917,31.824 C159.773,31.896 159.677,31.968 159.581,32.04 C162.293,35.352 165.533,37.44 169.733,38.904 C169.277,39.48 168.965,40.056 168.701,40.704 C168.533,41.136 168.461,41.304 168.293,41.304 C168.173,41.304 168.005,41.232 167.741,41.112 C166.109,40.392 164.549,39.552 163.157,38.568 L163.157,40.344 C163.157,40.584 163.133,40.608 162.893,40.608 C162.749,40.608 162.101,40.56 160.181,40.56 L156.485,40.56 C154.565,40.56 153.917,40.608 153.773,40.608 C153.533,40.608 153.509,40.584 153.509,40.344 Z M156.485,38.328 L160.181,38.328 C161.789,38.328 162.509,38.304 162.773,38.28 C161.045,37.032 159.533,35.568 158.237,33.888 C156.965,35.568 155.501,37.032 153.845,38.28 C154.061,38.304 154.733,38.328 156.485,38.328 Z M190.868,52.008 L184.124,52.008 C181.844,52.008 181.052,52.056 180.908,52.056 C180.668,52.056 180.644,52.032 180.644,51.792 L180.644,49.896 C180.644,49.656 180.668,49.632 180.908,49.632 C181.052,49.632 181.844,49.68 184.124,49.68 L186.14,49.68 L186.14,40.704 L185.06,40.704 C182.924,40.704 182.18,40.728 182.036,40.728 C181.82,40.728 181.796,40.728 181.796,40.488 L181.796,38.592 C181.796,38.352 181.82,38.352 182.036,38.352 C182.18,38.352 182.924,38.376 185.06,38.376 L186.14,38.376 L186.14,34.56 C186.14,32.856 186.116,32.04 185.948,30.936 C186.86,30.96 187.772,31.008 188.612,31.104 C188.828,31.128 188.996,31.224 188.996,31.344 C188.996,31.536 188.972,31.656 188.876,31.848 C188.732,32.136 188.684,32.736 188.684,34.488 L188.684,38.376 L190.196,38.376 C192.332,38.376 193.076,38.352 193.22,38.352 C193.46,38.352 193.484,38.352 193.484,38.592 L193.484,40.488 C193.484,40.728 193.46,40.728 193.22,40.728 C193.076,40.728 192.332,40.704 190.196,40.704 L188.684,40.704 L188.684,49.68 L190.868,49.68 C193.148,49.68 193.916,49.632 194.06,49.632 C194.324,49.632 194.348,49.656 194.348,49.896 L194.348,51.792 C194.348,52.032 194.324,52.056 194.06,52.056 C193.916,52.056 193.148,52.008 190.868,52.008 Z M176.108,49.824 L176.108,44.088 C175.364,44.808 174.62,45.48 173.828,46.08 C173.588,46.272 173.444,46.392 173.324,46.392 C173.18,46.392 173.084,46.2 172.94,45.84 C172.7,45.168 172.412,44.544 172.1,44.136 C174.908,42.36 177.164,39.768 178.364,37.032 L175.652,37.032 C173.828,37.032 173.252,37.08 173.108,37.08 C172.868,37.08 172.844,37.056 172.844,36.816 L172.844,35.04 C172.844,34.8 172.868,34.776 173.108,34.776 C173.252,34.776 173.828,34.824 175.652,34.824 L176.108,34.824 L176.108,33.84 C176.108,32.568 176.084,31.8 175.916,30.912 C176.828,30.936 177.548,30.984 178.412,31.08 C178.652,31.104 178.796,31.224 178.796,31.32 C178.796,31.536 178.724,31.656 178.652,31.824 C178.508,32.112 178.508,32.52 178.508,33.744 L178.508,34.824 L179.516,34.824 C179.732,34.824 179.852,34.8 179.972,34.728 C180.068,34.68 180.164,34.632 180.236,34.632 C180.38,34.632 180.62,34.776 181.124,35.256 C181.58,35.712 181.772,35.952 181.772,36.12 C181.772,36.24 181.724,36.36 181.532,36.504 C181.316,36.72 181.172,36.84 180.98,37.2 C180.404,38.424 179.708,39.6 178.94,40.704 C179.876,41.784 181.004,42.648 182.468,43.512 C182.108,43.896 181.772,44.472 181.508,45.072 C181.34,45.432 181.22,45.6 181.052,45.6 C180.932,45.6 180.788,45.504 180.572,45.312 C179.804,44.616 179.108,43.848 178.508,43.08 L178.508,49.824 C178.508,51.6 178.556,52.536 178.556,52.656 C178.556,52.896 178.532,52.92 178.268,52.92 L176.348,52.92 C176.084,52.92 176.06,52.896 176.06,52.656 C176.06,52.512 176.108,51.6 176.108,49.824 Z M209.939,36.648 L209.939,36.6 C207.011,37.152 204.443,37.656 201.875,38.184 C200.963,38.4 200.723,38.448 200.363,38.568 C200.195,38.64 200.027,38.76 199.835,38.76 C199.667,38.76 199.475,38.616 199.379,38.4 C199.067,37.752 198.803,36.912 198.491,35.808 C199.715,35.76 200.435,35.664 202.307,35.4 C205.259,34.968 210.539,34.176 216.731,33.36 C217.091,33.312 217.211,33.456 217.235,33.624 C217.355,34.176 217.475,35.064 217.499,35.736 C217.499,36.024 217.355,36.096 217.043,36.096 C215.915,36.168 215.147,36.288 214.115,36.624 C210.035,38.016 207.995,40.824 207.995,43.704 C207.995,46.8 210.203,48.48 214.379,48.744 C214.763,48.744 214.907,48.84 214.907,49.104 C214.907,49.728 214.811,50.568 214.643,51.168 C214.571,51.528 214.475,51.672 214.187,51.672 C209.963,51.672 205.331,49.248 205.331,44.256 C205.331,40.848 207.035,38.544 209.939,36.648 Z M213.419,40.08 L214.691,39.192 C214.811,39.096 214.907,39.12 215.051,39.24 C215.795,39.816 216.659,40.776 217.331,41.808 C217.427,41.952 217.427,42.072 217.259,42.192 L216.251,42.936 C216.083,43.056 215.963,43.032 215.843,42.864 C215.123,41.76 214.355,40.848 213.419,40.08 Z M215.627,38.496 L216.827,37.632 C216.971,37.536 217.043,37.56 217.187,37.68 C218.075,38.352 218.939,39.312 219.467,40.152 C219.563,40.296 219.587,40.44 219.395,40.584 L218.435,41.328 C218.243,41.472 218.123,41.4 218.027,41.256 C217.379,40.224 216.611,39.312 215.627,38.496 Z M241.01,36.48 L241.85,36.48 C243.434,36.48 243.914,36.432 244.058,36.432 C244.298,36.432 244.346,36.48 244.346,36.72 C244.322,37.536 244.298,38.232 244.298,39 C244.274,43.08 244.178,47.112 243.77,49.92 C243.482,51.696 243.002,52.56 241.154,52.56 C240.746,52.56 240.386,52.56 240.002,52.512 C239.546,52.464 239.546,52.464 239.474,51.696 C239.402,51.096 239.234,50.592 239.018,50.088 C239.666,50.208 240.218,50.256 240.65,50.256 C241.442,50.256 241.538,49.992 241.73,48.744 C242.09,46.44 242.186,43.08 242.186,38.616 L240.962,38.616 C240.842,41.112 240.602,43.416 240.218,45.384 C239.69,47.904 238.874,50.016 237.266,52.272 C237.098,52.488 237.002,52.584 236.906,52.584 C236.786,52.584 236.666,52.464 236.45,52.248 C235.946,51.72 235.61,51.456 235.13,51.192 L235.658,50.52 C235.538,50.568 235.37,50.592 235.106,50.64 C233.594,50.904 231.194,51.264 229.154,51.504 C228.722,51.552 228.386,51.624 228.242,51.72 C228.17,51.768 228.05,51.84 227.906,51.84 C227.81,51.84 227.714,51.696 227.666,51.432 C227.546,50.928 227.45,50.328 227.33,49.488 C228.026,49.512 228.65,49.488 229.466,49.44 C230.042,49.416 230.69,49.368 231.362,49.296 L231.362,48.024 L230.618,48.024 C228.866,48.024 228.314,48.072 228.17,48.072 C227.93,48.072 227.906,48.048 227.906,47.808 L227.906,46.416 C227.906,46.176 227.93,46.152 228.17,46.152 C228.314,46.152 228.866,46.2 230.618,46.2 L231.362,46.2 L231.362,45 L230.786,45 C228.986,45 228.386,45.048 228.242,45.048 C227.978,45.048 227.954,45.024 227.954,44.784 C227.954,44.616 228.002,44.088 228.002,42.84 L228.002,40.392 C228.002,39.096 227.954,38.568 227.954,38.4 C227.954,38.184 227.978,38.16 228.242,38.16 C228.386,38.16 228.986,38.208 230.786,38.208 L231.362,38.208 L231.362,37.056 L230.474,37.056 C228.602,37.056 227.978,37.104 227.834,37.104 C227.594,37.104 227.57,37.08 227.57,36.84 L227.57,35.424 C227.57,35.184 227.594,35.16 227.834,35.16 C227.978,35.16 228.602,35.208 230.474,35.208 L231.362,35.208 L231.362,34.128 C230.786,34.2 230.21,34.272 229.61,34.32 C228.986,34.368 228.986,34.344 228.794,33.864 C228.578,33.384 228.362,33 228.122,32.688 C228.05,32.832 228.002,33.024 227.906,33.312 C227.474,34.608 227.042,35.808 226.514,36.96 L226.514,49.008 C226.514,51.336 226.562,52.512 226.562,52.632 C226.562,52.872 226.538,52.896 226.298,52.896 L224.498,52.896 C224.258,52.896 224.234,52.872 224.234,52.632 C224.234,52.488 224.282,51.336 224.282,49.008 L224.282,43.608 C224.282,42.792 224.306,41.808 224.33,40.848 L223.37,42.168 C223.202,42.384 223.058,42.528 222.938,42.528 C222.842,42.528 222.77,42.384 222.698,42.096 C222.506,41.112 222.362,40.536 222.074,39.912 C223.97,37.512 224.906,35.256 225.746,32.568 C225.914,32.016 226.034,31.488 226.106,30.864 C226.85,31.08 227.594,31.272 228.266,31.56 C228.506,31.656 228.65,31.752 228.65,31.92 C228.65,32.088 228.554,32.208 228.362,32.376 C228.314,32.424 228.242,32.472 228.194,32.568 C230.618,32.424 232.634,32.136 234.434,31.728 C234.818,31.632 235.13,31.512 235.466,31.32 C235.97,31.824 236.354,32.232 236.69,32.688 C236.786,32.832 236.834,32.952 236.834,33.096 C236.834,33.288 236.714,33.36 236.522,33.36 C236.306,33.36 236.066,33.384 235.802,33.432 C234.986,33.6 234.17,33.744 233.306,33.864 L233.306,35.208 L233.978,35.208 C235.85,35.208 236.474,35.16 236.618,35.16 C236.834,35.16 236.858,35.184 236.858,35.424 L236.858,36.84 C236.858,37.08 236.834,37.104 236.618,37.104 C236.474,37.104 235.85,37.056 233.978,37.056 L233.306,37.056 L233.306,38.208 L233.906,38.208 C235.706,38.208 236.306,38.16 236.45,38.16 C236.714,38.16 236.738,38.184 236.738,38.4 C236.738,38.544 236.69,39.096 236.69,40.392 L236.69,42.84 C236.69,44.088 236.738,44.64 236.738,44.784 C236.738,45.024 236.714,45.048 236.45,45.048 C236.306,45.048 235.706,45 233.906,45 L233.306,45 L233.306,46.2 L233.618,46.2 C235.37,46.2 235.922,46.152 236.066,46.152 C236.33,46.152 236.354,46.176 236.354,46.416 L236.354,47.808 C236.354,48.048 236.33,48.072 236.066,48.072 C235.922,48.072 235.37,48.024 233.618,48.024 L233.306,48.024 L233.306,49.08 C234.17,48.96 235.13,48.816 236.114,48.648 C236.042,48.96 235.97,49.32 235.922,49.728 L235.85,50.208 C237.002,48.552 237.722,46.728 238.154,44.712 C238.49,43.152 238.706,41.016 238.802,38.616 C237.842,38.64 237.506,38.664 237.386,38.664 C237.146,38.664 237.122,38.64 237.122,38.4 L237.122,36.696 C237.122,36.456 237.146,36.432 237.386,36.432 C237.506,36.432 237.866,36.48 238.85,36.48 C238.874,35.88 238.874,35.256 238.874,34.632 C238.874,33.144 238.826,32.16 238.706,31.224 C239.426,31.248 240.362,31.32 240.938,31.392 C241.178,31.44 241.322,31.536 241.322,31.656 C241.322,31.848 241.202,32.04 241.154,32.28 C241.082,32.544 241.034,33.24 241.034,34.728 C241.034,35.328 241.034,35.904 241.01,36.48 Z M234.866,43.512 L234.866,42.264 L233.306,42.264 L233.306,43.512 L234.866,43.512 Z M229.826,43.512 L231.362,43.512 L231.362,42.264 L229.826,42.264 L229.826,43.512 Z M234.866,39.672 L233.306,39.672 L233.306,40.872 L234.866,40.872 L234.866,39.672 Z M229.826,40.872 L231.362,40.872 L231.362,39.672 L229.826,39.672 L229.826,40.872 Z M260.561,31.512 C260.273,32.112 259.913,32.616 259.265,33.312 C257.201,35.568 255.209,37.56 253.169,39.768 C252.425,40.56 251.993,41.088 251.993,41.88 C251.993,42.672 252.353,43.2 253.265,43.896 C256.529,46.392 259.217,48.888 262.001,52.008 C262.121,52.152 262.193,52.224 262.289,52.224 C262.385,52.224 262.481,52.152 262.625,52.032 C263.033,51.672 263.729,50.976 264.281,50.376 C264.401,50.256 264.449,50.184 264.449,50.088 C264.449,49.992 264.377,49.896 264.281,49.776 C261.713,47.088 258.473,44.472 255.353,42.216 C255.137,42.048 255.041,41.928 255.041,41.784 C255.041,41.664 255.137,41.52 255.353,41.256 C257.201,39.336 259.841,36.864 261.905,35.016 C262.409,34.536 262.769,34.32 263.057,34.176 C263.273,34.08 263.393,33.936 263.393,33.72 C263.393,33.624 263.321,33.432 263.201,33.336 C262.529,32.76 261.617,32.136 260.561,31.512 Z M280.448,37.536 C280.592,35.352 281.792,34.08 283.688,34.08 C285.464,34.08 286.592,35.112 286.592,36.744 C286.592,37.968 286.136,38.808 284.408,40.536 C282.704,42.24 282.2,43.32 282.2,45.696 L282.2,46.272 L284.672,46.272 C284.696,44.04 284.984,43.272 286.976,41.616 C289.112,39.816 289.832,38.424 289.832,36.744 C289.832,33.672 287.408,31.68 283.664,31.68 C280.112,31.68 277.808,33.6 277.352,36.816 L280.448,37.536 Z M281.72,48.6 L281.72,51.84 L285.128,51.84 L285.128,48.6 L281.72,48.6 Z" id="ウチの会社で働く？" fill="#232323"></path>
            </g>
        </g>
    </g>
</svg>