<?xml version="1.0" encoding="UTF-8" standalone="no"?>
<svg width="233px" height="24px" viewBox="0 0 233 24" version="1.1" xmlns="http://www.w3.org/2000/svg" xmlns:xlink="http://www.w3.org/1999/xlink">
    <!-- Generator: Sketch 44.1 (41455) - http://www.bohemiancoding.com/sketch -->
    <title>ryosukemaehira.com</title>
    <desc>Created with Sketch.</desc>
    <defs></defs>
    <g id="Page-1" stroke="none" stroke-width="1" fill="none" fill-rule="evenodd">
        <g id="Artboard-2" transform="translate(-57.000000, -36.000000)" fill="#00052E">
            <path d="M57.632,54 L59.36,54 L59.36,48.744 C59.36,47.112 59.648,46.44 59.936,46.056 C60.2,45.72 60.632,45.432 61.328,45.432 C61.592,45.432 61.952,45.504 62.336,45.768 L63.152,44.208 C62.72,43.992 62.144,43.8 61.616,43.8 C60.272,43.8 59.528,44.856 59.36,45.12 L59.36,44.04 L57.632,44.04 L57.632,54 Z M67.8960001,59.52 L69.8160001,59.52 L77.1360001,44.04 L75.2160001,44.04 L71.9760001,51.168 L68.4480001,44.04 L66.4800001,44.04 L71.0640001,53.064 L67.8960001,59.52 Z M86.0560001,54.288 C83.0320001,54.288 80.7760001,52.08 80.7760001,49.056 C80.7760001,46.032 83.0080001,43.8 86.0560001,43.8 C89.1040001,43.8 91.3360001,46.032 91.3360001,49.056 C91.3360001,52.08 89.0800001,54.288 86.0560001,54.288 Z M86.0560001,45.336 C84.2320001,45.336 82.5520001,46.632 82.5520001,49.056 C82.5520001,51.504 84.2800001,52.752 86.0560001,52.752 C87.8560001,52.752 89.5600001,51.48 89.5600001,49.056 C89.5600001,46.608 87.8800001,45.336 86.0560001,45.336 Z M101.936,45.6 C101.144,43.896 99.7280002,43.8 99.2000002,43.8 C97.5200002,43.8 96.2960002,44.832 96.2960002,46.584 C96.2960002,47.088 96.3680002,47.568 96.7520002,48.048 C97.2080002,48.6 97.9760002,48.984 99.1760002,49.512 C100.112,49.92 100.784,50.232 100.784,51.168 C100.784,51.912 100.28,52.752 99.1520002,52.752 C97.9040002,52.752 97.3280002,51.648 97.1360002,51.12 L95.6480002,51.744 C96.4880002,54.24 98.7200002,54.288 99.1280002,54.288 C101.048,54.288 102.56,53.112 102.56,51.024 C102.56,50.472 102.464,49.944 102.032,49.416 C101.648,48.936 100.976,48.48 99.5360002,47.88 C98.4080002,47.4 97.9280002,47.184 97.9280002,46.464 C97.9280002,45.696 98.5040002,45.336 99.1280002,45.336 C99.7760002,45.336 100.28,45.768 100.52,46.344 L101.936,45.6 Z M109.032,44.04 L107.304,44.04 L107.304,50.04 C107.304,51.264 107.424,52.176 108.216,53.04 C109.104,53.976 110.28,54.288 111.264,54.288 C112.248,54.288 113.424,53.976 114.312,53.04 C115.104,52.176 115.224,51.264 115.224,50.04 L115.224,44.04 L113.496,44.04 L113.496,49.848 C113.496,50.544 113.496,51.36 113.016,51.984 C112.752,52.32 112.224,52.752 111.264,52.752 C110.304,52.752 109.776,52.32 109.512,51.984 C109.032,51.36 109.032,50.544 109.032,49.848 L109.032,44.04 Z M120.928,36.504 L120.928,54 L122.656,54 L122.656,49.896 L123.088,49.464 L127.072,54 L129.328,54 L124.288,48.312 L128.56,44.04 L126.304,44.04 L122.656,47.736 L122.656,36.504 L120.928,36.504 Z M140.648,50.664 L142.088,51.456 C141.8,52.008 141.368,52.608 140.864,53.064 C139.952,53.88 138.824,54.288 137.552,54.288 C135.152,54.288 132.632,52.776 132.632,49.08 C132.632,46.104 134.456,43.8 137.456,43.8 C139.4,43.8 140.624,44.76 141.224,45.624 C141.848,46.512 142.208,48.048 142.16,49.368 L134.408,49.368 C134.432,51.432 135.848,52.752 137.576,52.752 C138.392,52.752 139.04,52.512 139.616,52.032 C140.072,51.648 140.432,51.144 140.648,50.664 Z M134.528,47.928 L140.384,47.928 C140.096,46.368 138.92,45.336 137.456,45.336 C135.992,45.336 134.792,46.44 134.528,47.928 Z M147.24,54 L148.968,54 L148.968,48.576 C148.968,47.376 149.184,45.336 151.152,45.336 C152.976,45.336 152.952,47.4 152.952,48.096 L152.952,54 L154.68,54 L154.68,48.456 C154.68,47.256 154.896,45.336 156.888,45.336 C158.52,45.336 158.664,46.824 158.664,47.952 L158.664,54 L160.392,54 L160.392,47.688 C160.392,46.272 160.104,43.8 157.152,43.8 C156.48,43.8 155.112,43.896 154.152,45.408 C153.96,45.072 153.24,43.8 151.44,43.8 C150.384,43.8 149.52,44.28 148.968,45.096 L148.968,44.04 L147.24,44.04 L147.24,54 Z M173.752,45.456 L173.752,44.04 L175.48,44.04 L175.48,54 L173.752,54 L173.752,52.608 C173.176,53.352 172.096,54.288 170.344,54.288 C167.824,54.288 165.496,52.512 165.496,49.008 C165.496,45.576 167.8,43.8 170.344,43.8 C172.264,43.8 173.296,44.856 173.752,45.456 Z M170.536,45.336 C168.832,45.336 167.272,46.584 167.272,49.008 C167.272,51.144 168.472,52.752 170.536,52.752 C172.648,52.752 173.848,51 173.848,49.032 C173.848,46.464 172.072,45.336 170.536,45.336 Z M188.576001,50.664 L190.016001,51.456 C189.728001,52.008 189.296001,52.608 188.792001,53.064 C187.880001,53.88 186.752001,54.288 185.480001,54.288 C183.080001,54.288 180.560001,52.776 180.560001,49.08 C180.560001,46.104 182.384001,43.8 185.384001,43.8 C187.328001,43.8 188.552001,44.76 189.152001,45.624 C189.776001,46.512 190.136001,48.048 190.088001,49.368 L182.336001,49.368 C182.360001,51.432 183.776001,52.752 185.504001,52.752 C186.320001,52.752 186.968001,52.512 187.544001,52.032 C188.000001,51.648 188.360001,51.144 188.576001,50.664 Z M182.456001,47.928 L188.312001,47.928 C188.024001,46.368 186.848001,45.336 185.384001,45.336 C183.920001,45.336 182.720001,46.44 182.456001,47.928 Z M195.168001,54 L196.896001,54 L196.896001,48.792 C196.896001,48.072 196.944001,46.896 197.616001,46.104 C198.120001,45.504 198.768001,45.336 199.368001,45.336 C200.136001,45.336 200.664001,45.624 201.000001,46.056 C201.408001,46.584 201.456001,47.28 201.456001,47.88 L201.456001,54 L203.184001,54 L203.184001,47.832 C203.184001,46.728 203.112001,45.912 202.608001,45.168 C202.008001,44.28 200.928001,43.8 199.752001,43.8 C198.096001,43.8 197.208001,44.784 196.896001,45.192 L196.896001,36.504 L195.168001,36.504 L195.168001,54 Z M208.888001,44.04 L208.888001,54 L210.616001,54 L210.616001,44.04 L208.888001,44.04 Z M208.528001,40.272 C208.528001,40.944 209.080001,41.496 209.752001,41.496 C210.424001,41.496 210.976001,40.944 210.976001,40.272 C210.976001,39.6 210.424001,39.048 209.752001,39.048 C209.080001,39.048 208.528001,39.6 208.528001,40.272 Z M216.320001,54 L218.048001,54 L218.048001,48.744 C218.048001,47.112 218.336001,46.44 218.624001,46.056 C218.888001,45.72 219.320001,45.432 220.016001,45.432 C220.280001,45.432 220.640001,45.504 221.024001,45.768 L221.840001,44.208 C221.408001,43.992 220.832001,43.8 220.304001,43.8 C218.960001,43.8 218.216001,44.856 218.048001,45.12 L218.048001,44.04 L216.320001,44.04 L216.320001,54 Z M232.992001,45.456 L232.992001,44.04 L234.720001,44.04 L234.720001,54 L232.992001,54 L232.992001,52.608 C232.416001,53.352 231.336001,54.288 229.584001,54.288 C227.064001,54.288 224.736001,52.512 224.736001,49.008 C224.736001,45.576 227.040001,43.8 229.584001,43.8 C231.504001,43.8 232.536001,44.856 232.992001,45.456 Z M229.776001,45.336 C228.072001,45.336 226.512001,46.584 226.512001,49.008 C226.512001,51.144 227.712001,52.752 229.776001,52.752 C231.888001,52.752 233.088001,51 233.088001,49.032 C233.088001,46.464 231.312001,45.336 229.776001,45.336 Z M240.328001,53.04 C240.328001,53.688 240.880001,54.24 241.528001,54.24 C242.176001,54.24 242.728001,53.688 242.728001,53.04 C242.728001,52.392 242.176001,51.84 241.528001,51.84 C240.880001,51.84 240.328001,52.392 240.328001,53.04 Z M256.136001,44.76 C255.656001,44.424 254.624001,43.8 253.040001,43.8 C249.968001,43.8 247.712001,46.032 247.712001,49.08 C247.712001,52.08 249.944001,54.288 253.040001,54.288 C253.976001,54.288 255.128001,54.048 256.208001,53.256 L256.208001,51.192 C255.296001,52.296 254.024001,52.752 252.992001,52.752 C251.216001,52.752 249.488001,51.48 249.488001,49.056 C249.488001,46.632 251.168001,45.336 253.016001,45.336 C253.904001,45.336 255.224001,45.672 256.136001,46.824 L256.136001,44.76 Z M265.944001,54.288 C262.920001,54.288 260.664001,52.08 260.664001,49.056 C260.664001,46.032 262.896001,43.8 265.944001,43.8 C268.992001,43.8 271.224001,46.032 271.224001,49.056 C271.224001,52.08 268.968001,54.288 265.944001,54.288 Z M265.944001,45.336 C264.120001,45.336 262.440001,46.632 262.440001,49.056 C262.440001,51.504 264.168001,52.752 265.944001,52.752 C267.744001,52.752 269.448001,51.48 269.448001,49.056 C269.448001,46.608 267.768001,45.336 265.944001,45.336 Z M276.304001,54 L278.032001,54 L278.032001,48.576 C278.032001,47.376 278.248001,45.336 280.216001,45.336 C282.040001,45.336 282.016001,47.4 282.016001,48.096 L282.016001,54 L283.744001,54 L283.744001,48.456 C283.744001,47.256 283.960001,45.336 285.952001,45.336 C287.584001,45.336 287.728001,46.824 287.728001,47.952 L287.728001,54 L289.456001,54 L289.456001,47.688 C289.456001,46.272 289.168001,43.8 286.216001,43.8 C285.544001,43.8 284.176001,43.896 283.216001,45.408 C283.024001,45.072 282.304001,43.8 280.504001,43.8 C279.448001,43.8 278.584001,44.28 278.032001,45.096 L278.032001,44.04 L276.304001,44.04 L276.304001,54 Z" id="ryosukemaehira.com"></path>
        </g>
    </g>
</svg>