<?xml version="1.0" encoding="UTF-8" standalone="no"?>
<svg width="67px" height="24px" viewBox="0 0 67 24" version="1.1" xmlns="http://www.w3.org/2000/svg" xmlns:xlink="http://www.w3.org/1999/xlink">
    <!-- Generator: Sketch 44.1 (41455) - http://www.bohemiancoding.com/sketch -->
    <title>Artboard 3</title>
    <desc>Created with Sketch.</desc>
    <defs></defs>
    <g id="Page-1" stroke="none" stroke-width="1" fill="none" fill-rule="evenodd">
        <g id="Artboard-3" fill="#262626">
            <path d="M10.18,14.846 C9.76,15.266 9.214,15.42 8.668,15.42 C7.604,15.42 6.708,14.72 6.708,13.404 C6.708,12.2 7.548,11.36 8.696,11.36 C9.172,11.36 9.676,11.542 10.082,11.906 L11.16,10.772 C10.404,10.03 9.648,9.75 8.668,9.75 C6.666,9.75 5,10.954 5,13.404 C5,15.854 6.666,17.058 8.668,17.058 C9.69,17.058 10.53,16.75 11.328,15.966 L10.18,14.846 Z M16.837,9.806 C19.035,9.806 20.449,11.43 20.449,13.404 C20.449,15.392 19.091,17.002 16.851,17.002 C14.611,17.002 13.267,15.392 13.267,13.404 C13.267,11.43 14.639,9.806 16.837,9.806 Z M16.851,11.36 C15.619,11.36 14.975,12.368 14.975,13.404 C14.975,14.454 15.605,15.434 16.851,15.434 C18.097,15.434 18.727,14.454 18.727,13.404 C18.727,12.368 17.999,11.36 16.851,11.36 Z M29.78,16.848 L29.78,13.222 C29.78,11.052 28.478,9.834 26.854,9.834 C25.986,9.834 25.286,10.184 24.586,10.87 L24.474,9.932 L22.948,9.932 L22.948,16.848 L24.642,16.848 L24.642,13.32 C24.642,12.27 25.356,11.388 26.406,11.388 C27.498,11.388 28.072,12.186 28.072,13.236 L28.072,16.848 L29.78,16.848 Z M33.021,8.182 L33.021,9.96 L31.733,9.96 L31.733,11.43 L33.021,11.43 L33.021,14.412 C33.021,16.134 34.001,16.988 35.499,16.932 C36.017,16.918 36.423,16.834 36.913,16.638 L36.437,15.182 C36.185,15.308 35.877,15.392 35.611,15.392 C35.079,15.392 34.715,15.07 34.715,14.412 L34.715,11.43 L36.633,11.43 L36.633,9.96 L34.729,9.96 L34.729,8 L33.021,8.182 Z M44.69,10.898 L44.746,9.946 L46.384,9.946 L46.384,16.848 L44.774,16.848 L44.69,15.84 C44.298,16.652 43.22,17.044 42.45,17.058 C40.406,17.072 38.894,15.812 38.894,13.39 C38.894,11.01 40.476,9.764 42.492,9.778 C43.416,9.778 44.298,10.212 44.69,10.898 Z M42.646,11.304 C41.512,11.304 40.602,12.074 40.602,13.39 C40.602,14.706 41.512,15.49 42.646,15.49 C45.334,15.49 45.334,11.304 42.646,11.304 Z M54.119,14.846 C53.699,15.266 53.153,15.42 52.607,15.42 C51.543,15.42 50.647,14.72 50.647,13.404 C50.647,12.2 51.487,11.36 52.635,11.36 C53.111,11.36 53.615,11.542 54.021,11.906 L55.099,10.772 C54.343,10.03 53.587,9.75 52.607,9.75 C50.605,9.75 48.939,10.954 48.939,13.404 C48.939,15.854 50.605,17.058 52.607,17.058 C53.629,17.058 54.469,16.75 55.267,15.966 L54.119,14.846 Z M58.088,8.182 L58.088,9.96 L56.8,9.96 L56.8,11.43 L58.088,11.43 L58.088,14.412 C58.088,16.134 59.068,16.988 60.566,16.932 C61.084,16.918 61.49,16.834 61.98,16.638 L61.504,15.182 C61.252,15.308 60.944,15.392 60.678,15.392 C60.146,15.392 59.782,15.07 59.782,14.412 L59.782,11.43 L61.7,11.43 L61.7,9.96 L59.796,9.96 L59.796,8 L58.088,8.182 Z" id="contact"></path>
        </g>
    </g>
</svg>
