<?xml version="1.0" encoding="UTF-8" standalone="no"?>
<svg width="40px" height="24px" viewBox="0 0 40 24" version="1.1" xmlns="http://www.w3.org/2000/svg" xmlns:xlink="http://www.w3.org/1999/xlink">
    <!-- Generator: Sketch 44.1 (41455) - http://www.bohemiancoding.com/sketch -->
    <title>Artboard 3</title>
    <desc>Created with Sketch.</desc>
    <defs></defs>
    <g id="Page-1" stroke="none" stroke-width="1" fill="none" fill-rule="evenodd">
        <g id="Artboard-3" fill="#565656">
            <path d="M8.822,11.312 C7.744,11.312 6.82,12.124 6.82,13.328 C6.82,14.574 7.744,15.358 8.822,15.358 C9.914,15.358 10.782,14.532 10.782,13.328 C10.782,12.082 9.914,11.312 8.822,11.312 Z M5,7 L6.708,7 L6.708,10.822 C7.114,10.108 8.248,9.716 8.976,9.716 C10.992,9.716 12.49,10.948 12.49,13.328 C12.49,15.596 10.964,16.94 8.934,16.94 C8.094,16.94 7.24,16.66 6.708,15.834 L6.596,16.786 L5,16.786 L5,7 Z M15.115,7 L15.115,16.786 L16.809,16.786 L16.809,7 L15.115,7 Z M22.92,9.744 C25.118,9.744 26.532,11.368 26.532,13.342 C26.532,15.33 25.174,16.94 22.934,16.94 C20.694,16.94 19.35,15.33 19.35,13.342 C19.35,11.368 20.722,9.744 22.92,9.744 Z M22.934,11.298 C21.702,11.298 21.058,12.306 21.058,13.342 C21.058,14.392 21.688,15.372 22.934,15.372 C24.18,15.372 24.81,14.392 24.81,13.342 C24.81,12.306 24.082,11.298 22.934,11.298 Z M33.805,10.052 L34.491,9.184 L35.751,10.136 L34.981,11.116 C35.513,11.718 35.709,12.404 35.709,13.16 C35.709,14.014 35.387,15.218 34.253,15.736 C35.401,16.31 35.681,17.136 35.681,18.018 C35.681,19.922 34.225,21.098 32.223,21.098 C30.221,21.098 28.723,19.88 28.723,18.018 L30.417,18.018 C30.417,18.914 31.243,19.502 32.223,19.502 C33.203,19.502 33.973,18.97 33.973,18.018 C33.973,17.066 33.077,16.632 32.223,16.632 C30.067,16.632 28.723,15.316 28.723,13.16 C28.723,11.004 30.291,9.66 32.223,9.66 C32.769,9.66 33.329,9.73 33.805,10.052 Z M32.223,11.214 C31.229,11.214 30.417,11.956 30.417,13.16 C30.417,14.364 31.229,15.078 32.223,15.078 C33.203,15.078 34.015,14.35 34.015,13.16 C34.015,11.97 33.203,11.214 32.223,11.214 Z" id="blog"></path>
        </g>
    </g>
</svg>