<?xml version="1.0" encoding="UTF-8" standalone="no"?>
<svg width="60px" height="24px" viewBox="0 0 60 24" version="1.1" xmlns="http://www.w3.org/2000/svg" xmlns:xlink="http://www.w3.org/1999/xlink">
    <!-- Generator: Sketch 44.1 (41455) - http://www.bohemiancoding.com/sketch -->
    <title>Artboard 3</title>
    <desc>Created with Sketch.</desc>
    <defs></defs>
    <g id="Page-1" stroke="none" stroke-width="1" fill="none" fill-rule="evenodd">
        <g id="Artboard-3" fill="#262626">
            <path d="M8.822,15.484 C9.984,15.484 10.782,14.602 10.782,13.524 C10.782,12.446 10.054,11.564 8.822,11.564 C7.59,11.564 6.862,12.446 6.862,13.524 C6.862,14.602 7.66,15.484 8.822,15.484 Z M6.708,19.852 L5,19.852 L5,10.066 L6.596,10.066 L6.708,11.018 C7.24,10.248 8.164,9.912 8.948,9.912 C11.076,9.912 12.49,11.494 12.49,13.524 C12.49,15.54 11.216,17.136 9.004,17.136 C8.276,17.136 7.198,16.912 6.708,16.156 L6.708,19.852 Z M15.115,10.066 L15.115,16.968 L16.823,16.968 L16.823,13.328 C16.823,12.054 17.649,11.578 18.545,11.578 C19.105,11.578 19.427,11.732 19.777,12.026 L20.547,10.542 C20.169,10.164 19.483,9.884 18.769,9.884 C18.069,9.884 17.355,10.01 16.823,10.864 L16.697,10.066 L15.115,10.066 Z M25.804,9.926 C28.002,9.926 29.416,11.55 29.416,13.524 C29.416,15.512 28.058,17.122 25.818,17.122 C23.578,17.122 22.234,15.512 22.234,13.524 C22.234,11.55 23.606,9.926 25.804,9.926 Z M25.818,11.48 C24.586,11.48 23.942,12.488 23.942,13.524 C23.942,14.574 24.572,15.554 25.818,15.554 C27.064,15.554 27.694,14.574 27.694,13.524 C27.694,12.488 26.966,11.48 25.818,11.48 Z M34.225,16.968 L34.225,11.662 L36.255,11.662 L36.255,10.164 L34.225,10.164 L34.225,9.702 C34.225,8.862 34.673,8.47 35.261,8.47 C35.611,8.47 35.947,8.596 36.311,8.834 L36.941,7.56 C36.381,7.196 35.751,7 35.149,7 C33.763,7 32.517,7.854 32.517,9.702 L32.517,10.164 L31.229,10.164 L31.229,11.662 L32.517,11.662 L32.517,16.968 L34.225,16.968 Z M40.532,10.038 L40.532,16.968 L38.824,16.968 L38.824,10.038 L40.532,10.038 Z M38.67,8.12 C38.67,6.79 40.686,6.79 40.686,8.12 C40.686,9.45 38.67,9.45 38.67,8.12 Z M43.437,7.182 L43.437,16.968 L45.131,16.968 L45.131,7.182 L43.437,7.182 Z M54.84,14.126 L49.45,14.126 C49.562,14.98 50.304,15.596 51.508,15.596 C52.138,15.596 52.964,15.358 53.356,14.952 L54.448,16.03 C53.72,16.786 52.53,17.15 51.48,17.15 C49.1,17.15 47.686,15.68 47.686,13.468 C47.686,11.368 49.114,9.856 51.354,9.856 C53.664,9.856 55.106,11.284 54.84,14.126 Z M49.478,12.712 L53.202,12.712 C53.09,11.816 52.39,11.368 51.41,11.368 C50.486,11.368 49.73,11.816 49.478,12.712 Z" id="profile"></path>
        </g>
    </g>
</svg>
