<?xml version="1.0" encoding="UTF-8" standalone="no"?>
<svg width="108px" height="15px" viewBox="0 0 108 15" version="1.1" xmlns="http://www.w3.org/2000/svg" xmlns:xlink="http://www.w3.org/1999/xlink">
    <!-- Generator: Sketch 44.1 (41455) - http://www.bohemiancoding.com/sketch -->
    <title>Web Designer</title>
    <desc>Created with Sketch.</desc>
    <defs></defs>
    <g id="Page-1" stroke="none" stroke-width="1" fill="none" fill-rule="evenodd">
        <g id="Artboard-2" transform="translate(-714.000000, -303.000000)" fill="#565656">
            <path d="M728.798,303.2 L726.726,303.2 L724.486,310.27 L722.036,303.2 L720.832,303.2 L718.452,310.27 L716.142,303.2 L714.07,303.2 L717.668,313 L719.236,313 L720.426,309.948 L721.448,306.826 L722.484,309.92 L723.702,313 L725.27,313 L728.798,303.2 Z M736.855,310.158 L731.465,310.158 C731.577,311.012 732.319,311.628 733.523,311.628 C734.153,311.628 734.979,311.39 735.371,310.984 L736.463,312.062 C735.735,312.818 734.545,313.182 733.495,313.182 C731.115,313.182 729.701,311.712 729.701,309.5 C729.701,307.4 731.129,305.888 733.369,305.888 C735.679,305.888 737.121,307.316 736.855,310.158 Z M731.493,308.744 L735.217,308.744 C735.105,307.848 734.405,307.4 733.425,307.4 C732.501,307.4 731.745,307.848 731.493,308.744 Z M743.358,307.526 C742.28,307.526 741.356,308.338 741.356,309.542 C741.356,310.788 742.28,311.572 743.358,311.572 C744.45,311.572 745.318,310.746 745.318,309.542 C745.318,308.296 744.45,307.526 743.358,307.526 Z M739.536,303.214 L741.244,303.214 L741.244,307.036 C741.65,306.322 742.784,305.93 743.512,305.93 C745.528,305.93 747.026,307.162 747.026,309.542 C747.026,311.81 745.5,313.154 743.47,313.154 C742.63,313.154 741.776,312.874 741.244,312.048 L741.132,313 L739.536,313 L739.536,303.214 Z M757.694001,303.2 C761.054001,303.2 762.552001,305.594 762.594001,308.016 C762.636001,310.494 761.124001,313 757.694001,313 L753.844001,313 L753.844001,303.2 L757.694001,303.2 Z M755.678001,304.95 L755.678001,311.222 L757.694001,311.222 C759.920001,311.222 760.802001,309.598 760.760001,308.002 C760.718001,306.476 759.822001,304.95 757.694001,304.95 L755.678001,304.95 Z M772.191001,310.158 L766.801001,310.158 C766.913001,311.012 767.655001,311.628 768.859001,311.628 C769.489001,311.628 770.315001,311.39 770.707001,310.984 L771.799001,312.062 C771.071001,312.818 769.881001,313.182 768.831001,313.182 C766.451001,313.182 765.037001,311.712 765.037001,309.5 C765.037001,307.4 766.465001,305.888 768.705001,305.888 C771.015001,305.888 772.457001,307.316 772.191001,310.158 Z M766.829001,308.744 L770.553001,308.744 C770.441001,307.848 769.741001,307.4 768.761001,307.4 C767.837001,307.4 767.081001,307.848 766.829001,308.744 Z M780.332001,306.812 C779.534001,306.112 778.722001,305.902 777.644001,305.902 C776.384001,305.902 774.732001,306.462 774.732001,308.058 C774.732001,309.626 776.286001,310.102 777.588001,310.2 C778.568001,310.256 778.960001,310.452 778.960001,310.928 C778.960001,311.432 778.358001,311.768 777.714001,311.754 C776.944001,311.74 775.824001,311.334 775.334001,310.788 L774.494001,312.006 C775.502001,313.056 776.594001,313.238 777.686001,313.238 C779.660001,313.238 780.654001,312.188 780.654001,310.97 C780.654001,309.136 779.002001,308.842 777.700001,308.758 C776.818001,308.702 776.412001,308.45 776.412001,308.002 C776.412001,307.568 776.860001,307.316 777.672001,307.316 C778.330001,307.316 778.890001,307.47 779.380001,307.932 L780.332001,306.812 Z M784.819001,306.07 L784.819001,313 L783.111001,313 L783.111001,306.07 L784.819001,306.07 Z M782.957001,304.152 C782.957001,302.822 784.973001,302.822 784.973001,304.152 C784.973001,305.482 782.957001,305.482 782.957001,304.152 Z M792.456001,306.266 L793.142001,305.398 L794.402001,306.35 L793.632001,307.33 C794.164001,307.932 794.360001,308.618 794.360001,309.374 C794.360001,310.228 794.038001,311.432 792.904001,311.95 C794.052001,312.524 794.332001,313.35 794.332001,314.232 C794.332001,316.136 792.876001,317.312 790.874001,317.312 C788.872001,317.312 787.374001,316.094 787.374001,314.232 L789.068001,314.232 C789.068001,315.128 789.894001,315.716 790.874001,315.716 C791.854001,315.716 792.624001,315.184 792.624001,314.232 C792.624001,313.28 791.728001,312.846 790.874001,312.846 C788.718001,312.846 787.374001,311.53 787.374001,309.374 C787.374001,307.218 788.942001,305.874 790.874001,305.874 C791.420001,305.874 791.980001,305.944 792.456001,306.266 Z M790.874001,307.428 C789.880001,307.428 789.068001,308.17 789.068001,309.374 C789.068001,310.578 789.880001,311.292 790.874001,311.292 C791.854001,311.292 792.666001,310.564 792.666001,309.374 C792.666001,308.184 791.854001,307.428 790.874001,307.428 Z M803.607001,313 L803.607001,309.374 C803.607001,307.204 802.305001,305.986 800.681001,305.986 C799.813001,305.986 799.113001,306.336 798.413001,307.022 L798.301001,306.084 L796.775001,306.084 L796.775001,313 L798.469001,313 L798.469001,309.472 C798.469001,308.422 799.183001,307.54 800.233001,307.54 C801.325001,307.54 801.899001,308.338 801.899001,309.388 L801.899001,313 L803.607001,313 Z M813.288001,310.158 L807.898001,310.158 C808.010001,311.012 808.752001,311.628 809.956001,311.628 C810.586001,311.628 811.412001,311.39 811.804001,310.984 L812.896001,312.062 C812.168001,312.818 810.978001,313.182 809.928001,313.182 C807.548001,313.182 806.134001,311.712 806.134001,309.5 C806.134001,307.4 807.562001,305.888 809.802001,305.888 C812.112001,305.888 813.554001,307.316 813.288001,310.158 Z M807.926001,308.744 L811.650001,308.744 C811.538001,307.848 810.838001,307.4 809.858001,307.4 C808.934001,307.4 808.178001,307.848 807.926001,308.744 Z M815.969001,306.098 L815.969001,313 L817.677001,313 L817.677001,309.36 C817.677001,308.086 818.503001,307.61 819.399001,307.61 C819.959001,307.61 820.281001,307.764 820.631001,308.058 L821.401001,306.574 C821.023001,306.196 820.337001,305.916 819.623001,305.916 C818.923001,305.916 818.209001,306.042 817.677001,306.896 L817.551001,306.098 L815.969001,306.098 Z" id="Web-Designer"></path>
        </g>
    </g>
</svg>